<?xml version="1.0" encoding="utf-8"?>
<!-- Generator: Adobe Illustrator 26.2.0, SVG Export Plug-In . SVG Version: 6.00 Build 0)  -->
<svg version="1.1" id="레이어_1" xmlns="http://www.w3.org/2000/svg" xmlns:xlink="http://www.w3.org/1999/xlink" x="0px"
	 y="0px" viewBox="0 0 80 80" style="enable-background:new 0 0 80 80;" xml:space="preserve">
<style type="text/css">
	.st0{clip-path:url(#SVGID_00000160181147827032221010000018089737487198409101_);}
	.st1{fill:#FFFFFF;}
</style>
<g>
	<defs>
		<circle id="SVGID_1_" cx="40.1" cy="40" r="37.5"/>
	</defs>
	
		<linearGradient id="SVGID_00000158020230148807534600000017544923613026871949_" gradientUnits="userSpaceOnUse" x1="18.5671" y1="70.7208" x2="61.589" y2="9.2792">
		<stop  offset="0" style="stop-color:#FFDC39"/>
		<stop  offset="0.2387" style="stop-color:#FF9426"/>
		<stop  offset="0.4548" style="stop-color:#FF555D"/>
		<stop  offset="0.7739" style="stop-color:#9427FF"/>
		<stop  offset="0.9874" style="stop-color:#5A00B2"/>
	</linearGradient>
	<use xlink:href="#SVGID_1_"  style="overflow:visible;fill:url(#SVGID_00000158020230148807534600000017544923613026871949_);"/>
	<clipPath id="SVGID_00000182509944363182450190000018241189023055319202_">
		<use xlink:href="#SVGID_1_"  style="overflow:visible;"/>
	</clipPath>
	<g style="clip-path:url(#SVGID_00000182509944363182450190000018241189023055319202_);">
		<defs>
			<rect id="SVGID_00000160156636439340113970000002808776475581264300_" x="0.6" y="1.8" width="78.4" height="78.4"/>
		</defs>
		
			<linearGradient id="SVGID_00000182522800483203289130000001783637286516112046_" gradientUnits="userSpaceOnUse" x1="8.4459" y1="85.7469" x2="71.1102" y2="-3.7469">
			<stop  offset="0" style="stop-color:#FFDC39"/>
			<stop  offset="0.2387" style="stop-color:#FF9426"/>
			<stop  offset="0.4548" style="stop-color:#FF555D"/>
			<stop  offset="0.7739" style="stop-color:#9427FF"/>
			<stop  offset="0.9874" style="stop-color:#5A00B2"/>
		</linearGradient>
		
			<use xlink:href="#SVGID_00000160156636439340113970000002808776475581264300_"  style="overflow:visible;fill:url(#SVGID_00000182522800483203289130000001783637286516112046_);"/>
		<clipPath id="SVGID_00000075161768976970096890000014383827598360499380_">
			<use xlink:href="#SVGID_00000160156636439340113970000002808776475581264300_"  style="overflow:visible;"/>
		</clipPath>
	</g>
</g>
<g>
	<path class="st1" d="M27.9,46.8v1.9H17.6v-1.9h4.2v-1.6H18v-1.8h1.6v-2.5h-1.5V39h9.2v1.9h-1.5v2.5h1.6v1.8h-3.7v1.6H27.9z
		 M21.6,43.3h2.3v-2.5h-2.3V43.3z"/>
	<path class="st1" d="M39.5,46.8v1.8H29.1v-1.8h4.2v-1.1h-3.6V39h9.2v1.8h-7.2v0.7h7.1v1.7h-7.1V44H39v1.8h-3.7v1.1H39.5z"/>
	<path class="st1" d="M42.2,44.7c-0.5,0.3-1,0.5-1.5,0.5v-1.9c0.3,0,0.7-0.3,0.9-0.6c0.3-0.4,0.5-0.9,0.7-1.5s0.2-1.4,0.2-2.3
		l1.9,0.1c0,0.9-0.1,1.8-0.3,2.6l2.2,2.1V42h-1.2v-1.8h1.2v-1.3h1.9v7.4h-1.9v-2.3l-1.2,1.2l-1.7-1.7C43,43.9,42.6,44.4,42.2,44.7z
		 M51,47.2V49h-9.6v-3.4h2.1v1.6H51z M50.9,46.4H49v-7.6h1.9V46.4z"/>
	<path class="st1" d="M56.6,46.7c0.5,0,1,0,1.5-0.1c0.5-0.1,0.9-0.2,1.2-0.4v1.9c-0.3,0.2-0.7,0.3-1.2,0.4c-0.5,0.1-1,0.1-1.5,0.1
		h-4V39h5.9v1.9h-3.9v1.9H58v1.8h-3.4v2H56.6z M62.2,38.8V49h-2v-4.6h-1.5v-1.9h1.5v-3.8H62.2z"/>
	<path class="st1" d="M20.8,52.6c0.4,0.2,0.8,0.5,1,0.9c0.2,0.4,0.4,0.8,0.4,1.3c0,0.5-0.1,1-0.4,1.4c-0.2,0.4-0.6,0.7-1,0.9
		s-0.9,0.3-1.5,0.3s-1-0.1-1.5-0.3c-0.4-0.2-0.8-0.5-1-0.9s-0.4-0.8-0.4-1.4c0-0.5,0.1-1,0.4-1.3s0.6-0.7,1-0.9
		c0.4-0.2,0.9-0.3,1.5-0.3S20.3,52.4,20.8,52.6z M19,59.3h5.9v1.5h-7.7v-3H19V59.3z M18.5,54c-0.2,0.2-0.3,0.5-0.3,0.8
		c0,0.4,0.1,0.6,0.3,0.8S19,56,19.3,56s0.6-0.1,0.8-0.3s0.3-0.5,0.3-0.8c0-0.4-0.1-0.6-0.3-0.8s-0.5-0.3-0.8-0.3S18.7,53.8,18.5,54z
		 M24.8,58.6h-1.7v-6.3h1.7V58.6z"/>
	<path class="st1" d="M26.1,58.9h8.6v1.6h-8.6V58.9z M28.6,57.1c-0.7,0.4-1.5,0.6-2.3,0.6v-1.6c0.6,0,1.1-0.2,1.6-0.5
		c0.5-0.3,0.9-0.8,1.3-1.4c0.4-0.6,0.6-1.3,0.7-2l1.7,0.3c-0.1,0.6-0.2,1.1-0.5,1.7l3.6,2.2l-0.9,1.4l-3.5-2.2
		C29.9,56.2,29.3,56.7,28.6,57.1z"/>
	<path class="st1" d="M39.5,58.9c0.4,0,0.8,0,1.2-0.1c0.4-0.1,0.7-0.2,1-0.3V60c-0.3,0.1-0.6,0.2-1,0.3c-0.4,0.1-0.9,0.1-1.3,0.1H36
		v-7.9h5V54h-3.3v1.6h3.1v1.5h-3.1v1.7H39.5z M44.8,57h-1v3.8h-1.7v-8.5h1.7v3.1h1V57z"/>
	<path class="st1" d="M54,60.5h-8.6v-1.6H54V60.5z M53.5,58.4h-1.8v-4.3h-5.9v-1.6h7.7V58.4z"/>
	<path class="st1" d="M58.4,57.1c-0.4,0.1-0.8,0.1-1.2,0.1h-2v-3h2.3v-0.5h-2.3v-1.3h3.8v3h-2.2v0.5h0.6c0.4,0,0.8,0,1.1-0.1
		c0.4,0,0.6-0.1,0.9-0.2v1.3C59,57,58.7,57.1,58.4,57.1z M55.6,57.6h7.9v3.2h-7.9V57.6z M57.3,59.5h4.5v-0.6h-4.5V59.5z M63.5,52.3
		v5.1h-1.6v-2h-0.7v1.9h-1.6v-4.9h1.6v1.5h0.7v-1.6H63.5z"/>
</g>
<g>
	<path class="st1" d="M35.1,12.5c3.3,0,6.6,0,9.9,0c0.1,0,0.1,0,0.2,0c0.6,0.1,1.1,0.2,1.6,0.4c2.2,1,3.4,2.8,3.4,5.2c0,3,0,6,0,9
		c0,1.2-0.3,2.2-1,3.2c-1.1,1.6-2.7,2.4-4.7,2.4c-3,0-5.9,0-8.9,0c-0.4,0-0.8,0-1.1-0.1c-2.3-0.5-3.8-1.9-4.4-4.2
		c-0.1-0.3-0.1-0.6-0.2-0.9c0-3.3,0-6.6,0-9.9c0-0.2,0.1-0.4,0.1-0.6c0.5-2.3,1.9-3.8,4.2-4.4C34.5,12.6,34.8,12.6,35.1,12.5z
		 M48.4,22.7c0-1.5,0-2.9,0-4.4c0-0.5,0-0.9-0.2-1.4c-0.6-1.6-2-2.6-3.7-2.6c-3,0-5.9,0-8.9,0c-0.4,0-0.9,0.1-1.3,0.2
		c-1.6,0.5-2.6,1.9-2.6,3.7c0,2.9,0,5.9,0,8.8c0,0.4,0.1,0.9,0.2,1.3c0.5,1.6,1.9,2.6,3.7,2.6c3,0,5.9,0,8.9,0
		c1.3,0,2.4-0.5,3.2-1.6c0.5-0.7,0.7-1.5,0.7-2.3C48.4,25.6,48.4,24.1,48.4,22.7z"/>
	<path class="st1" d="M40.1,27.9c-2.9,0-5.2-2.4-5.2-5.2c0-2.9,2.4-5.2,5.2-5.2c2.9,0,5.2,2.4,5.2,5.2
		C45.3,25.5,42.9,27.9,40.1,27.9z M43.5,22.7c0-1.9-1.5-3.4-3.4-3.4c-1.9,0-3.4,1.5-3.4,3.4c0,1.9,1.5,3.4,3.4,3.4
		C41.9,26.1,43.5,24.6,43.5,22.7z"/>
	<path class="st1" d="M45.5,15.9c0.7,0,1.3,0.6,1.3,1.3c0,0.7-0.6,1.3-1.3,1.3c-0.7,0-1.3-0.6-1.3-1.3
		C44.2,16.5,44.8,15.9,45.5,15.9z"/>
</g>
</svg>
