<?xml version="1.0" encoding="utf-8"?>
<!-- Generator: Adobe Illustrator 26.2.0, SVG Export Plug-In . SVG Version: 6.00 Build 0)  -->
<svg version="1.1" id="레이어_1" xmlns="http://www.w3.org/2000/svg" xmlns:xlink="http://www.w3.org/1999/xlink" x="0px"
	 y="0px" viewBox="0 0 80 80" style="enable-background:new 0 0 80 80;" xml:space="preserve">
<style type="text/css">
	.st0{fill:#EEDA23;}
	.st1{fill:#2D231F;}
</style>
<circle class="st0" cx="40.1" cy="40" r="37.5"/>
<g>
	<g>
		<path class="st1" d="M40.1,13.2c-7.5,0-13.6,4.8-13.6,10.7c0,3.9,2.6,7.2,6.4,9.1c-0.3,1.1-1,3.8-1.2,4.4
			c-0.2,0.7,0.3,0.7,0.6,0.5c0.2-0.2,3.7-2.5,5.2-3.5c0.8,0.1,1.7,0.2,2.5,0.2c7.5,0,13.6-4.8,13.6-10.7
			C53.7,18,47.6,13.2,40.1,13.2"/>
		<g>
			<path class="st0" d="M34.7,20.8h-4c-0.4,0-0.7,0.3-0.7,0.7c0,0.4,0.3,0.7,0.7,0.7H32v4.7c0,0.2,0.1,0.3,0.2,0.5
				c0.1,0.1,0.3,0.2,0.5,0.2h0.1c0.2,0,0.3-0.1,0.5-0.2c0.1-0.1,0.2-0.3,0.2-0.5v-4.7h1.2c0.4,0,0.7-0.3,0.7-0.7
				C35.3,21.1,35,20.8,34.7,20.8z"/>
			<path class="st0" d="M44.2,26.3h-1.8v-4.9c0-0.4-0.3-0.7-0.7-0.7c-0.4,0-0.7,0.3-0.7,0.7v5.2c0,0,0,0.1,0,0.1c0,0,0,0.1,0,0.1
				c0,0.3,0.3,0.6,0.6,0.6h2.7c0.3,0,0.6-0.3,0.6-0.6C44.8,26.5,44.5,26.3,44.2,26.3z"/>
			<path class="st0" d="M50.1,26.5L48,23.8l1.9-1.9c0.3-0.3,0.3-0.7,0-0.9c-0.3-0.3-0.7-0.3-0.9,0l-2.3,2.3v-1.9
				c0-0.4-0.3-0.7-0.7-0.7c-0.4,0-0.7,0.3-0.7,0.7v5.4c0,0.4,0.3,0.7,0.7,0.7c0.4,0,0.7-0.3,0.7-0.7v-1.7l0.4-0.4l1.9,2.5
				c0.2,0.3,0.6,0.3,0.9,0.1C50.2,27.2,50.3,26.8,50.1,26.5z"/>
			<path class="st0" d="M40.3,26.7l-2-5.4c0,0,0,0,0,0c-0.1-0.3-0.5-0.6-0.9-0.6c-0.5,0-0.9,0.3-1,0.7c0,0,0,0.1,0,0.1l-1.9,5.2
				c-0.1,0.3,0.1,0.7,0.4,0.8c0.3,0.1,0.7-0.1,0.8-0.4l0.3-1h2.7l0.3,1c0.1,0.3,0.5,0.5,0.8,0.4C40.3,27.4,40.4,27,40.3,26.7z
				 M36.5,24.9l0.9-2.6c0,0,0,0,0,0l0.9,2.6H36.5z"/>
		</g>
	</g>
	<g>
		<g>
			<path class="st1" d="M21.3,49c-0.6,0.3-1.2,0.4-1.9,0.5v-1.8c0.6,0,1.1-0.3,1.5-0.7c0.4-0.4,0.7-0.9,0.8-1.4h-2.2v-1.7h2.2v-1.1
				h2v1.1h2.2v1.7h-2.2c0,0.3-0.1,0.5-0.1,0.7l2.6,1.6l-0.9,1.5l-2.5-1.6C22.3,48.3,21.9,48.7,21.3,49z M28.8,51.5v1.8h-8.8V50h2
				v1.5H28.8z M28.6,50.7h-1.9v-7.6h1.9V50.7z"/>
			<path class="st1" d="M39.8,50.5h-4v3h-2v-3h-3.9v-1.9h9.8V50.5z M37.2,45.1h-6.7v-1.9h8.7V48h-2V45.1z"/>
			<path class="st1" d="M50.4,51.4h-3.9v2.2h-2v-2.2h-3.9v-1.9h9.8V51.4z M45.2,47.5c-0.5,0.4-1.2,0.8-1.9,1
				c-0.8,0.2-1.5,0.4-2.4,0.4V47c0.7,0,1.4-0.2,2-0.4c0.6-0.3,1.1-0.6,1.4-1.1h-3.2v-1.8h3.4v-0.9h2v0.9h3.4v1.8h-3.4
				c0,0.1-0.1,0.3-0.1,0.4l3.8,1.2l-0.6,1.8L45.2,47.5z"/>
			<path class="st1" d="M51.5,43.3h5.5v2.8c0,1.4-0.2,2.6-0.7,3.6c-0.4,1-1.1,1.8-1.9,2.3c-0.8,0.5-1.8,0.8-2.9,0.8v-1.9
				c1.2,0,2-0.4,2.6-1.3c0.6-0.8,0.9-2,0.9-3.6v-0.9h-3.5V43.3z M61.6,48.8h-1.1v4.5h-1.9V43.1h1.9v3.7h1.1V48.8z"/>
			<path class="st1" d="M23.3,57.7h1.9v9.5h-5.7v-9.5h1.9v3h1.9V57.7z M23.3,65.4v-2.8h-1.9v2.8H23.3z M29.5,63.2h-1.1v4.5h-1.9
				V57.5h1.9v3.7h1.1V63.2z"/>
			<path class="st1" d="M39.8,65.5v1.8h-9.8v-1.8h3.9v-1.2h-3.4v-4.2h6.9v-0.7h-6.9v-1.8h8.8v4.2h-6.9v0.7h7v1.8h-3.5v1.2H39.8z"/>
			<path class="st1" d="M40.9,57.7h5.5v2.8c0,1.4-0.2,2.6-0.7,3.6c-0.4,1-1.1,1.8-1.9,2.3s-1.8,0.8-2.9,0.8v-1.9
				c1.2,0,2-0.4,2.6-1.3c0.6-0.8,0.9-2,0.9-3.6v-0.9h-3.5V57.7z M50.9,63.2h-1.1v4.5h-1.9V57.5h1.9v3.7h1.1V63.2z"/>
			<path class="st1" d="M57.3,60.5c0,1.4-0.2,2.6-0.7,3.6c-0.5,1-1.1,1.8-2,2.3c-0.8,0.5-1.8,0.8-3,0.8v-1.9c1.2,0,2.1-0.4,2.7-1.3
				c0.6-0.9,0.9-2,0.9-3.5v-0.9h-3.6v-1.8h5.6V60.5z M60.7,67.7h-1.9V57.5h1.9V67.7z"/>
		</g>
	</g>
</g>
</svg>
