<?xml version="1.0" encoding="utf-8"?>
<!-- Generator: Adobe Illustrator 26.2.0, SVG Export Plug-In . SVG Version: 6.00 Build 0)  -->
<svg version="1.1" id="레이어_1" xmlns="http://www.w3.org/2000/svg" xmlns:xlink="http://www.w3.org/1999/xlink" x="0px"
	 y="0px" viewBox="0 0 256 50" style="enable-background:new 0 0 256 50;" xml:space="preserve">
<style type="text/css">
	.st0{fill:#1C2B59;}
	.st1{fill:#FFFFFF;}
</style>
<rect y="0" class="st0" width="256" height="50"/>
<g>
	<g>
		<path class="st1" d="M82.4,24.8h-7.8v-10h7.8V24.8z M91.5,28.6v3H75.6v-5.7H79v2.6L91.5,28.6L91.5,28.6z M79.4,17.5h-1.7V22h1.7
			V17.5z M86.7,26.9h-3.1V14.6h3.1v3.5h1.4v-3.6h3.2v12.7h-3.2v-5.9h-1.4V26.9z"/>
		<path class="st1" d="M106.9,24.7c0.9,0,1.7-0.1,2.5-0.2s1.4-0.3,1.9-0.5v3c-0.9,0.4-2.4,0.6-4.5,0.6h-0.1v3.9h-3.4v-3.9h-4.2v-3
			h7.8V24.7z M102.3,23.1c-0.8-0.4-1.4-0.9-1.9-1.6c-0.4-0.7-0.7-1.5-0.7-2.3c0-0.9,0.2-1.7,0.7-2.4c0.4-0.7,1.1-1.2,1.9-1.6
			c0.8-0.4,1.7-0.6,2.7-0.6s1.9,0.2,2.7,0.6c0.8,0.4,1.4,0.9,1.9,1.6c0.4,0.7,0.7,1.5,0.7,2.4s-0.2,1.7-0.7,2.3
			c-0.4,0.7-1.1,1.2-1.9,1.6s-1.7,0.6-2.7,0.6S103.1,23.5,102.3,23.1z M103.6,17.9c-0.4,0.3-0.6,0.8-0.6,1.3s0.2,1,0.6,1.3
			s0.9,0.5,1.5,0.5s1.1-0.2,1.5-0.5s0.5-0.8,0.5-1.3s-0.2-1-0.5-1.3c-0.4-0.3-0.9-0.5-1.5-0.5S104,17.5,103.6,17.9z M115.7,14.5
			v17.1h-3.4V14.5H115.7z"/>
		<path class="st1" d="M135.7,27.9V31h-17.3v-3.1h6.9V26h-6v-7h12v-1.2h-12.1v-3h15.4v6.9h-12V23h12.2v3h-6.2v1.9H135.7z"/>
		<path class="st1" d="M160.5,21.3v2.5h-17.3v-2.5h7v-0.6c-4.1-0.3-6.1-1.3-6.1-3.2c0-1.1,0.7-2,2.1-2.5s3.3-0.8,5.7-0.8
			s4.3,0.3,5.7,0.8s2.1,1.3,2.1,2.5c0,1.9-2,3-6.1,3.2v0.6H160.5z M147.5,29.4h12.1v2.2h-15.4v-4.5h12v-0.6h-12v-2.1h15.3v4.5h-12
			L147.5,29.4L147.5,29.4z M148.8,18.1c0.7,0.1,1.8,0.2,3.1,0.2s2.3-0.1,3.1-0.2c0.7-0.1,1.1-0.4,1.1-0.6s-0.4-0.5-1.1-0.6
			c-0.7-0.1-1.8-0.2-3.1-0.2s-2.3,0.1-3.1,0.2c-0.7,0.1-1.1,0.4-1.1,0.6S148,18,148.8,18.1z"/>
		<path class="st1" d="M169.9,27.8c0.8,0,1.6-0.1,2.4-0.2s1.5-0.3,2-0.6v3c-0.5,0.3-1.2,0.5-2,0.6s-1.7,0.2-2.5,0.2H163v-9.5h6.4V18
			H163v-3h9.8v9.4h-6.4v3.4H169.9z M180.5,24h-2v7.6h-3.4V14.5h3.4v6.2h2V24z"/>
		<path class="st1" d="M182.2,14.9h9.7v4.6c0,2.3-0.4,4.3-1.2,6s-1.9,3-3.4,3.9s-3.2,1.4-5.1,1.4v-3.2c2,0,3.6-0.7,4.6-2.1
			c1.1-1.4,1.6-3.4,1.6-5.9V18h-6.2L182.2,14.9L182.2,14.9z M199.7,24h-2v7.6h-3.4V14.5h3.4v6.2h2V24z"/>
		<path class="st1" d="M211.4,19.5c0,2.3-0.4,4.3-1.2,6s-1.9,3-3.4,3.9s-3.2,1.4-5.2,1.4v-3.2c2,0,3.6-0.7,4.7-2.2
			c1.1-1.4,1.7-3.4,1.7-5.9V18h-6.4v-3.1h9.8L211.4,19.5L211.4,19.5z M217.5,31.6h-3.4V14.5h3.4V31.6z"/>
	</g>
	<g>
		<path class="st1" d="M63,21.3L52.2,10.5C51.9,10.2,51.4,10,51,10s-0.9,0.1-1.2,0.4L39,21.3c-0.6,0.6-0.6,1.6,0,2.2s1.6,0.6,2.2,0
			l8.2-8.2v23.4c0,0.7,0.6,1.2,1.2,1.2h0.6c0.7,0,1.2-0.6,1.2-1.2V15.4l8.2,8.2c0.6,0.6,1.6,0.6,2.2,0C63.6,22.9,63.6,21.9,63,21.3z
			"/>
	</g>
</g>
</svg>
