<?xml version="1.0" encoding="utf-8"?>
<!-- Generator: Adobe Illustrator 26.2.0, SVG Export Plug-In . SVG Version: 6.00 Build 0)  -->
<svg version="1.1" id="레이어_1" xmlns="http://www.w3.org/2000/svg" xmlns:xlink="http://www.w3.org/1999/xlink" x="0px"
	 y="0px" viewBox="0 0 256 50" style="enable-background:new 0 0 256 50;" xml:space="preserve">
<style type="text/css">
	.st0{fill:#EEDA23;}
	.st1{fill:#2D231F;}
</style>
<rect class="st0" width="256" height="50"/>
<g>
	<g>
		<path class="st1" d="M71.9,25.1c-1,0.5-2.1,0.7-3.2,0.8v-2.9c1.1-0.1,1.9-0.4,2.6-1.1c0.7-0.7,1.2-1.4,1.4-2.4h-3.8v-2.8h3.8v-1.8
			h3.4v1.8H80v2.8h-3.8c-0.1,0.4-0.2,0.8-0.3,1.1l4.6,2.6l-1.6,2.5l-4.4-2.6C73.7,24,72.9,24.6,71.9,25.1z M85,29.3v3H69.5v-5.5h3.4
			v2.5H85z M84.8,27.9h-3.4V15.2h3.4V27.9z"/>
		<path class="st1" d="M104.8,27.6h-7v5h-3.5v-5h-6.8v-3.1h17.3V27.6z M100.3,18.5H88.5v-3.1h15.3v8.1h-3.5V18.5z"/>
		<path class="st1" d="M124,29h-6.9v3.6h-3.4V29h-6.9v-3.1H124V29z M114.9,22.5c-0.9,0.7-2.1,1.3-3.4,1.7c-1.3,0.4-2.7,0.6-4.2,0.7
			v-3.1c1.3,0,2.5-0.3,3.6-0.7s1.9-1,2.4-1.8h-5.6v-3.1h5.9v-1.5h3.5v1.5h6v3.1h-5.9c0,0.2-0.1,0.4-0.3,0.7l6.7,1.9l-1,2.9
			L114.9,22.5z"/>
		<path class="st1" d="M126.5,15.6h9.7v4.6c0,2.3-0.4,4.3-1.2,6s-1.9,3-3.4,3.9c-1.5,0.9-3.2,1.4-5.1,1.4v-3.2c2,0,3.6-0.7,4.6-2.1
			s1.6-3.4,1.6-5.9v-1.5h-6.2V15.6z M144,24.7h-2v7.6h-3.4V15.2h3.4v6.2h2V24.7z"/>
		<path class="st1" d="M158,15.6h3.3v15.9h-9.9V15.6h3.3v5h3.3V15.6z M158,28.4v-4.7h-3.3v4.7H158z M168.9,24.7h-2v7.6h-3.4V15.2
			h3.4v6.2h2V24.7z"/>
		<path class="st1" d="M187.3,28.6v3.1h-17.3v-3.1h6.9v-1.9h-6v-7h12v-1.2H171v-3h15.4v6.9h-12v1.2h12.2v3h-6.2v1.9H187.3z"/>
		<path class="st1" d="M189.8,15.6h9.7v4.6c0,2.3-0.4,4.3-1.2,6c-0.8,1.7-1.9,3-3.4,3.9s-3.2,1.4-5.1,1.4v-3.2c2,0,3.6-0.7,4.6-2.1
			c1.1-1.4,1.6-3.4,1.6-5.9v-1.5h-6.2V15.6z M207.3,24.7h-2v7.6H202V15.2h3.4v6.2h2V24.7z"/>
		<path class="st1" d="M219,20.2c0,2.3-0.4,4.3-1.2,6s-1.9,3-3.4,3.9c-1.5,0.9-3.2,1.4-5.2,1.4v-3.2c2,0,3.6-0.7,4.7-2.2
			c1.1-1.4,1.7-3.4,1.7-5.9v-1.5h-6.4v-3.1h9.8V20.2z M225.1,32.3h-3.4V15.2h3.4V32.3z"/>
	</g>
	<g>
		<path class="st1" d="M47,10.4c-8.8,0-16,5.7-16,12.6c0,4.6,3.1,8.5,7.5,10.7c-0.4,1.3-1.2,4.5-1.4,5.2c-0.2,0.8,0.4,0.8,0.7,0.6
			c0.2-0.2,4.4-2.9,6.1-4.1c0.9,0.1,2,0.2,2.9,0.2c8.8,0,16-5.7,16-12.6C63,16,55.8,10.4,47,10.4"/>
		<g>
			<path class="st0" d="M40.6,19.3h-4.7c-0.5,0-0.8,0.4-0.8,0.8c0,0.5,0.4,0.8,0.8,0.8h1.5v5.5c0,0.2,0.1,0.4,0.2,0.6
				c0.1,0.1,0.4,0.2,0.6,0.2h0.1c0.2,0,0.4-0.1,0.6-0.2c0.1-0.1,0.2-0.4,0.2-0.6V21h1.4c0.5,0,0.8-0.4,0.8-0.8
				C41.3,19.7,40.9,19.3,40.6,19.3z"/>
			<path class="st0" d="M51.8,25.8h-2.1V20c0-0.5-0.4-0.8-0.8-0.8c-0.5,0-0.8,0.4-0.8,0.8v6.1v0.1v0.1c0,0.4,0.4,0.7,0.7,0.7h3.2
				c0.4,0,0.7-0.4,0.7-0.7C52.5,26.1,52.1,25.8,51.8,25.8z"/>
			<path class="st0" d="M58.7,26.1l-2.5-3.2l2.2-2.2c0.4-0.4,0.4-0.8,0-1.1c-0.4-0.4-0.8-0.4-1.1,0l-2.7,2.7V20
				c0-0.5-0.4-0.8-0.8-0.8s-0.8,0.4-0.8,0.8v6.4c0,0.5,0.4,0.8,0.8,0.8s0.8-0.4,0.8-0.8v-2l0.5-0.5l2.2,2.9c0.2,0.4,0.7,0.4,1.1,0.1
				C58.8,26.9,59,26.4,58.7,26.1z"/>
			<path class="st0" d="M47.2,26.3l-2.4-6.4l0,0c-0.1-0.4-0.6-0.7-1.1-0.7c-0.6,0-1.1,0.4-1.2,0.8v0.1l-2.2,6.1
				c-0.1,0.4,0.1,0.8,0.5,0.9c0.4,0.1,0.8-0.1,0.9-0.5l0.4-1.2h3.2l0.4,1.2c0.1,0.4,0.6,0.6,0.9,0.5C47.2,27.1,47.3,26.6,47.2,26.3z
				 M42.7,24.2l1.1-3.1l0,0l1.1,3.1H42.7z"/>
		</g>
	</g>
</g>
</svg>
