<?xml version="1.0" encoding="utf-8"?>
<!-- Generator: Adobe Illustrator 26.2.0, SVG Export Plug-In . SVG Version: 6.00 Build 0)  -->
<svg version="1.1" id="레이어_1" xmlns="http://www.w3.org/2000/svg" xmlns:xlink="http://www.w3.org/1999/xlink" x="0px"
	 y="0px" viewBox="0 0 80 80" style="enable-background:new 0 0 80 80;" xml:space="preserve">
<style type="text/css">
	.st0{fill:#1C2B59;}
	.st1{fill:#FFFFFF;}
</style>
<circle class="st0" cx="40.3" cy="40" r="37.5"/>
<g>
	<g>
		<path class="st1" d="M28,45.1h-4.5v-6H28V45.1z M33.2,47.4v1.8h-9.1v-3.4h2v1.6C26.1,47.4,33.2,47.4,33.2,47.4z M26.2,40.7h-1v2.7
			h1V40.7z M30.4,46.4h-1.8V39h1.8v2.1h0.8v-2.2H33v7.6h-1.8V43h-0.8C30.4,43,30.4,46.4,30.4,46.4z"/>
		<path class="st1" d="M41.4,45c0.5,0,1,0,1.4-0.1s0.8-0.2,1.1-0.3v1.8c-0.5,0.2-1.4,0.4-2.6,0.4h-0.1v2.3h-1.9v-2.3h-2.4V45H41.4z
			 M38.8,44.1c-0.5-0.2-0.8-0.6-1.1-1s-0.4-0.9-0.4-1.4s0.1-1,0.4-1.4c0.3-0.4,0.6-0.7,1.1-1c0.5-0.2,1-0.3,1.5-0.3
			c0.6,0,1.1,0.1,1.5,0.3s0.8,0.6,1.1,1s0.4,0.9,0.4,1.4s-0.1,1-0.4,1.4c-0.3,0.4-0.6,0.7-1.1,1c-0.4,0.2-1,0.3-1.5,0.3
			C39.7,44.5,39.2,44.3,38.8,44.1z M39.5,40.9c-0.2,0.2-0.3,0.5-0.3,0.8s0.1,0.6,0.3,0.8s0.5,0.3,0.8,0.3s0.6-0.1,0.8-0.3
			s0.3-0.5,0.3-0.8s-0.1-0.6-0.3-0.8s-0.5-0.3-0.8-0.3C40,40.6,39.7,40.7,39.5,40.9z M46.4,38.9v10.2h-1.9V38.9H46.4z"/>
		<path class="st1" d="M57.5,47v1.8h-9.8V47h3.9v-1.2h-3.4v-4.2H55V41h-6.9v-1.8h8.8v4.2H50v0.7h7v1.8h-3.5V47H57.5z"/>
		<path class="st1" d="M29.3,57.4v1.5h-9.8v-1.5h4v-0.3c-2.3-0.2-3.5-0.8-3.5-1.9c0-0.7,0.4-1.2,1.2-1.5c0.8-0.3,1.9-0.5,3.2-0.5
			s2.4,0.2,3.2,0.5c0.8,0.3,1.2,0.8,1.2,1.5c0,1.1-1.2,1.8-3.5,1.9v0.3H29.3z M21.9,62.3h6.9v1.3H20v-2.7h6.8v-0.3H20v-1.3h8.7V62
			h-6.8C21.9,62,21.9,62.3,21.9,62.3z M22.6,55.5c0.4,0.1,1,0.1,1.8,0.1c0.7,0,1.3,0,1.8-0.1s0.6-0.2,0.6-0.4s-0.2-0.3-0.6-0.4
			s-1-0.1-1.7-0.1s-1.3,0-1.7,0.1C22.2,54.8,22,55,22,55.1S22.2,55.4,22.6,55.5z"/>
		<path class="st1" d="M34.4,61.3c0.5,0,0.9,0,1.4-0.1s0.8-0.2,1.1-0.3v1.8c-0.3,0.2-0.7,0.3-1.1,0.4c-0.5,0.1-1,0.1-1.4,0.1h-3.9
			v-5.7h3.6v-2h-3.6v-1.8H36v5.6h-3.6v2.1L34.4,61.3L34.4,61.3z M40.4,59.1h-1.1v4.5h-1.9V53.3h1.9V57h1.1V59.1z"/>
		<path class="st1" d="M41.1,53.6h5.5v2.8c0,1.4-0.2,2.6-0.7,3.6c-0.4,1-1.1,1.8-1.9,2.3c-0.8,0.5-1.8,0.8-2.9,0.8v-1.9
			c1.2,0,2-0.4,2.6-1.3c0.6-0.8,0.9-2,0.9-3.6v-0.9h-3.5C41.1,55.4,41.1,53.6,41.1,53.6z M51.1,59.1H50v4.5h-2V53.3h2V57h1.1V59.1z"
			/>
		<path class="st1" d="M57.5,56.4c0,1.4-0.2,2.6-0.7,3.6s-1.1,1.8-2,2.3s-1.8,0.8-3,0.8v-1.9c1.2,0,2.1-0.4,2.7-1.3
			c0.6-0.9,0.9-2,0.9-3.5v-0.9h-3.6v-1.8h5.6L57.5,56.4L57.5,56.4z M60.9,63.6H59V53.3h1.9V63.6z"/>
	</g>
</g>
<g>
	<path class="st1" d="M48.3,21.5L41,14.2c-0.2-0.2-0.5-0.3-0.8-0.3s-0.6,0.1-0.8,0.3l-7.3,7.3c-0.4,0.4-0.4,1.1,0,1.5
		c0.4,0.4,1.1,0.4,1.5,0l5.5-5.5v15.8c0,0.5,0.4,0.8,0.8,0.8h0.4c0.5,0,0.8-0.4,0.8-0.8V17.5l5.5,5.5c0.4,0.4,1.1,0.4,1.5,0
		C48.7,22.6,48.7,21.9,48.3,21.5z"/>
</g>
</svg>
